<svg width="340" height="53" viewBox="0 0 340 53" fill="none" xmlns="http://www.w3.org/2000/svg">
<g filter="url(#filter0_d_33531_1325)">
<rect width="331" height="40" transform="translate(4.5 0.856445)" fill="white"/>
<path d="M6.40469 20.8964H13.4447V13.6564H16.3247V20.8964H23.3647V23.7764H16.3247V30.9764H13.4447V23.7764H6.40469V20.8964ZM29.4 35.8564L39.44 12.4164L41.2 10.4564L38.84 10.8164H27.44V7.85644H44.16V8.93644L32.64 35.8564H29.4ZM64.3925 44.6564C63.1658 43.3764 62.1258 41.9631 61.2725 40.4164C60.4192 38.8964 59.7258 37.3364 59.1925 35.7364C58.6858 34.1098 58.3125 32.4831 58.0725 30.8564C57.8325 29.2031 57.7125 27.6298 57.7125 26.1364C57.7125 24.6698 57.8325 23.1231 58.0725 21.4964C58.3125 19.8698 58.6992 18.2431 59.2325 16.6164C59.7658 14.9631 60.4592 13.3498 61.3125 11.7764C62.1925 10.2031 63.2592 8.73644 64.5125 7.37644L66.4325 8.77644C65.3658 10.1364 64.4725 11.5498 63.7525 13.0164C63.0592 14.4564 62.4992 15.9231 62.0725 17.4164C61.6458 18.9098 61.3392 20.4031 61.1525 21.8964C60.9925 23.3631 60.9125 24.7764 60.9125 26.1364C60.9125 27.4164 61.0058 28.8164 61.1925 30.3364C61.4058 31.8298 61.7258 33.3364 62.1525 34.8564C62.6058 36.3498 63.1792 37.8164 63.8725 39.2564C64.5925 40.6964 65.4458 42.0031 66.4325 43.1764L64.3925 44.6564ZM69.2434 29.1764C69.2434 27.4964 69.6834 26.0431 70.5634 24.8164C71.4434 23.5631 72.8168 22.4298 74.6834 21.4164C74.0168 21.0164 73.3901 20.6031 72.8034 20.1764C72.2434 19.7231 71.7368 19.2164 71.2834 18.6564C70.8568 18.0964 70.5101 17.4698 70.2434 16.7764C70.0034 16.0831 69.8834 15.2831 69.8834 14.3764C69.8834 13.3364 70.0568 12.3898 70.4034 11.5364C70.7768 10.6831 71.2968 9.94978 71.9634 9.33644C72.6568 8.72311 73.4701 8.24311 74.4034 7.89644C75.3634 7.54978 76.4434 7.37644 77.6434 7.37644C78.7634 7.37644 79.7768 7.53644 80.6834 7.85644C81.5901 8.17644 82.3501 8.61644 82.9634 9.17644C83.6034 9.73644 84.0968 10.4031 84.4434 11.1764C84.7901 11.9498 84.9634 12.8031 84.9634 13.7364C84.9634 15.2564 84.6168 16.6031 83.9234 17.7764C83.2301 18.9231 82.0834 20.0564 80.4834 21.1764C81.1768 21.5764 81.8301 22.0164 82.4434 22.4964C83.0834 22.9764 83.6301 23.5098 84.0834 24.0964C84.5634 24.6831 84.9368 25.3498 85.2034 26.0964C85.4701 26.8164 85.6034 27.6431 85.6034 28.5764C85.6034 29.7231 85.4168 30.7764 85.0434 31.7364C84.6701 32.6698 84.1234 33.4831 83.4034 34.1764C82.6834 34.8431 81.8034 35.3764 80.7634 35.7764C79.7234 36.1498 78.5368 36.3364 77.2034 36.3364C75.9234 36.3364 74.7901 36.1498 73.8034 35.7764C72.8168 35.4031 71.9768 34.8964 71.2834 34.2564C70.6168 33.6164 70.1101 32.8698 69.7634 32.0164C69.4168 31.1364 69.2434 30.1898 69.2434 29.1764ZM82.4834 28.7764C82.4834 27.9764 82.3234 27.2831 82.0034 26.6964C81.6834 26.0831 81.2568 25.5364 80.7234 25.0564C80.2168 24.5498 79.6301 24.0964 78.9634 23.6964C78.2968 23.2964 77.6034 22.9098 76.8834 22.5364C75.2568 23.4431 74.0968 24.4564 73.4034 25.5764C72.7101 26.6964 72.3634 27.7631 72.3634 28.7764C72.3634 29.4164 72.4701 30.0298 72.6834 30.6164C72.8968 31.2031 73.2168 31.7098 73.6434 32.1364C74.0701 32.5631 74.5901 32.9098 75.2034 33.1764C75.8434 33.4164 76.5768 33.5364 77.4034 33.5364C78.0701 33.5364 78.7101 33.4431 79.3234 33.2564C79.9368 33.0431 80.4701 32.7498 80.9234 32.3764C81.4034 31.9764 81.7768 31.4831 82.0434 30.8964C82.3368 30.2831 82.4834 29.5764 82.4834 28.7764ZM73.0034 14.2964C73.0034 15.0431 73.1501 15.7098 73.4434 16.2964C73.7368 16.8564 74.1234 17.3631 74.6034 17.8164C75.1101 18.2698 75.6834 18.6964 76.3234 19.0964C76.9634 19.4698 77.6301 19.8298 78.3234 20.1764C79.5234 19.2431 80.4034 18.3231 80.9634 17.4164C81.5501 16.5098 81.8434 15.5098 81.8434 14.4164C81.8434 13.0564 81.4168 12.0164 80.5634 11.2964C79.7368 10.5498 78.7368 10.1764 77.5634 10.1764C76.8434 10.1764 76.2034 10.2964 75.6434 10.5364C75.0834 10.7764 74.6034 11.0831 74.2034 11.4564C73.8034 11.8298 73.4968 12.2698 73.2834 12.7764C73.0968 13.2564 73.0034 13.7631 73.0034 14.2964ZM92.6403 32.8964H98.2403V13.5364L98.6403 11.1764L97.0403 13.0564L92.6403 16.2164L91.1203 14.1764L99.9203 7.37644H101.36V32.8964H106.84V35.8564H92.6403V32.8964ZM127.957 14.2164C127.957 15.6298 127.691 17.0831 127.157 18.5764C126.651 20.0431 125.971 21.5231 125.117 23.0164C124.291 24.5098 123.357 25.9764 122.317 27.4164C121.277 28.8298 120.237 30.1764 119.197 31.4564L117.237 33.1764V33.3364L119.797 32.8964H128.517V35.8564H112.597V34.6964C113.184 34.0831 113.891 33.3231 114.717 32.4164C115.544 31.5098 116.397 30.5098 117.277 29.4164C118.184 28.2964 119.064 27.1231 119.917 25.8964C120.797 24.6431 121.584 23.3764 122.277 22.0964C122.997 20.8164 123.571 19.5498 123.997 18.2964C124.424 17.0431 124.637 15.8564 124.637 14.7364C124.637 13.4298 124.264 12.3498 123.517 11.4964C122.771 10.6164 121.637 10.1764 120.117 10.1764C119.104 10.1764 118.117 10.3898 117.157 10.8164C116.197 11.2164 115.371 11.6831 114.677 12.2164L113.357 9.93645C114.291 9.13644 115.397 8.50978 116.677 8.05644C117.957 7.60311 119.331 7.37644 120.797 7.37644C121.944 7.37644 122.957 7.54978 123.837 7.89644C124.717 8.21644 125.464 8.68311 126.077 9.29644C126.691 9.90978 127.157 10.6431 127.477 11.4964C127.797 12.3231 127.957 13.2298 127.957 14.2164ZM134.034 7.37644C135.261 8.65644 136.301 10.0698 137.154 11.6164C138.007 13.1364 138.687 14.7098 139.194 16.3364C139.727 17.9364 140.114 19.5631 140.354 21.2164C140.594 22.8431 140.714 24.4031 140.714 25.8964C140.714 27.3631 140.594 28.9098 140.354 30.5364C140.114 32.1631 139.727 33.8031 139.194 35.4564C138.661 37.0831 137.954 38.6831 137.074 40.2564C136.221 41.8298 135.167 43.2964 133.914 44.6564L131.994 43.2564C133.061 41.8964 133.954 40.4831 134.674 39.0164C135.394 37.5498 135.954 36.0698 136.354 34.5764C136.781 33.0831 137.074 31.6031 137.234 30.1364C137.421 28.6698 137.514 27.2564 137.514 25.8964C137.514 24.6164 137.407 23.2298 137.194 21.7364C136.981 20.2431 136.647 18.7364 136.194 17.2164C135.767 15.6964 135.207 14.2164 134.514 12.7764C133.821 11.3364 132.981 10.0298 131.994 8.85644L134.034 7.37644ZM156.509 29.1764C156.509 27.4964 156.949 26.0431 157.829 24.8164C158.709 23.5631 160.082 22.4298 161.949 21.4164C161.282 21.0164 160.656 20.6031 160.069 20.1764C159.509 19.7231 159.002 19.2164 158.549 18.6564C158.122 18.0964 157.776 17.4698 157.509 16.7764C157.269 16.0831 157.149 15.2831 157.149 14.3764C157.149 13.3364 157.322 12.3898 157.669 11.5364C158.042 10.6831 158.562 9.94978 159.229 9.33644C159.922 8.72311 160.736 8.24311 161.669 7.89644C162.629 7.54978 163.709 7.37644 164.909 7.37644C166.029 7.37644 167.042 7.53644 167.949 7.85644C168.856 8.17644 169.616 8.61644 170.229 9.17644C170.869 9.73644 171.362 10.4031 171.709 11.1764C172.056 11.9498 172.229 12.8031 172.229 13.7364C172.229 15.2564 171.882 16.6031 171.189 17.7764C170.496 18.9231 169.349 20.0564 167.749 21.1764C168.442 21.5764 169.096 22.0164 169.709 22.4964C170.349 22.9764 170.896 23.5098 171.349 24.0964C171.829 24.6831 172.202 25.3498 172.469 26.0964C172.736 26.8164 172.869 27.6431 172.869 28.5764C172.869 29.7231 172.682 30.7764 172.309 31.7364C171.936 32.6698 171.389 33.4831 170.669 34.1764C169.949 34.8431 169.069 35.3764 168.029 35.7764C166.989 36.1498 165.802 36.3364 164.469 36.3364C163.189 36.3364 162.056 36.1498 161.069 35.7764C160.082 35.4031 159.242 34.8964 158.549 34.2564C157.882 33.6164 157.376 32.8698 157.029 32.0164C156.682 31.1364 156.509 30.1898 156.509 29.1764ZM169.749 28.7764C169.749 27.9764 169.589 27.2831 169.269 26.6964C168.949 26.0831 168.522 25.5364 167.989 25.0564C167.482 24.5498 166.896 24.0964 166.229 23.6964C165.562 23.2964 164.869 22.9098 164.149 22.5364C162.522 23.4431 161.362 24.4564 160.669 25.5764C159.976 26.6964 159.629 27.7631 159.629 28.7764C159.629 29.4164 159.736 30.0298 159.949 30.6164C160.162 31.2031 160.482 31.7098 160.909 32.1364C161.336 32.5631 161.856 32.9098 162.469 33.1764C163.109 33.4164 163.842 33.5364 164.669 33.5364C165.336 33.5364 165.976 33.4431 166.589 33.2564C167.202 33.0431 167.736 32.7498 168.189 32.3764C168.669 31.9764 169.042 31.4831 169.309 30.8964C169.602 30.2831 169.749 29.5764 169.749 28.7764ZM160.269 14.2964C160.269 15.0431 160.416 15.7098 160.709 16.2964C161.002 16.8564 161.389 17.3631 161.869 17.8164C162.376 18.2698 162.949 18.6964 163.589 19.0964C164.229 19.4698 164.896 19.8298 165.589 20.1764C166.789 19.2431 167.669 18.3231 168.229 17.4164C168.816 16.5098 169.109 15.5098 169.109 14.4164C169.109 13.0564 168.682 12.0164 167.829 11.2964C167.002 10.5498 166.002 10.1764 164.829 10.1764C164.109 10.1764 163.469 10.2964 162.909 10.5364C162.349 10.7764 161.869 11.0831 161.469 11.4564C161.069 11.8298 160.762 12.2698 160.549 12.7764C160.362 13.2564 160.269 13.7631 160.269 14.2964ZM179.906 32.8964H185.506V13.5364L185.906 11.1764L184.306 13.0564L179.906 16.2164L178.386 14.1764L187.186 7.37644H188.626V32.8964H194.106V35.8564H179.906V32.8964ZM215.223 14.2164C215.223 15.6298 214.956 17.0831 214.423 18.5764C213.916 20.0431 213.236 21.5231 212.383 23.0164C211.556 24.5098 210.623 25.9764 209.583 27.4164C208.543 28.8298 207.503 30.1764 206.463 31.4564L204.503 33.1764V33.3364L207.063 32.8964H215.783V35.8564H199.863V34.6964C200.449 34.0831 201.156 33.3231 201.983 32.4164C202.809 31.5098 203.663 30.5098 204.543 29.4164C205.449 28.2964 206.329 27.1231 207.183 25.8964C208.063 24.6431 208.849 23.3764 209.543 22.0964C210.263 20.8164 210.836 19.5498 211.263 18.2964C211.689 17.0431 211.903 15.8564 211.903 14.7364C211.903 13.4298 211.529 12.3498 210.783 11.4964C210.036 10.6164 208.903 10.1764 207.383 10.1764C206.369 10.1764 205.383 10.3898 204.423 10.8164C203.463 11.2164 202.636 11.6831 201.943 12.2164L200.623 9.93645C201.556 9.13644 202.663 8.50978 203.943 8.05644C205.223 7.60311 206.596 7.37644 208.063 7.37644C209.209 7.37644 210.223 7.54978 211.103 7.89644C211.983 8.21644 212.729 8.68311 213.343 9.29644C213.956 9.90978 214.423 10.6431 214.743 11.4964C215.063 12.3231 215.223 13.2298 215.223 14.2164ZM221.54 22.8564H231.22V25.8164H221.54V22.8564ZM237.914 32.8964H243.514V13.5364L243.914 11.1764L242.314 13.0564L237.914 16.2164L236.394 14.1764L245.194 7.37644H246.634V32.8964H252.114V35.8564H237.914V32.8964ZM273.231 14.2164C273.231 15.6298 272.964 17.0831 272.431 18.5764C271.924 20.0431 271.244 21.5231 270.391 23.0164C269.564 24.5098 268.631 25.9764 267.591 27.4164C266.551 28.8298 265.511 30.1764 264.471 31.4564L262.511 33.1764V33.3364L265.071 32.8964H273.791V35.8564H257.871V34.6964C258.457 34.0831 259.164 33.3231 259.991 32.4164C260.817 31.5098 261.671 30.5098 262.551 29.4164C263.457 28.2964 264.337 27.1231 265.191 25.8964C266.071 24.6431 266.857 23.3764 267.551 22.0964C268.271 20.8164 268.844 19.5498 269.271 18.2964C269.697 17.0431 269.911 15.8564 269.911 14.7364C269.911 13.4298 269.537 12.3498 268.791 11.4964C268.044 10.6164 266.911 10.1764 265.391 10.1764C264.377 10.1764 263.391 10.3898 262.431 10.8164C261.471 11.2164 260.644 11.6831 259.951 12.2164L258.631 9.93645C259.564 9.13644 260.671 8.50978 261.951 8.05644C263.231 7.60311 264.604 7.37644 266.071 7.37644C267.217 7.37644 268.231 7.54978 269.111 7.89644C269.991 8.21644 270.737 8.68311 271.351 9.29644C271.964 9.90978 272.431 10.6431 272.751 11.4964C273.071 12.3231 273.231 13.2298 273.231 14.2164ZM279.548 22.8564H289.228V25.8164H279.548V22.8564ZM295.922 32.8964H301.522V13.5364L301.922 11.1764L300.322 13.0564L295.922 16.2164L294.402 14.1764L303.202 7.37644H304.642V32.8964H310.122V35.8564H295.922V32.8964ZM331.238 14.2164C331.238 15.6298 330.972 17.0831 330.438 18.5764C329.932 20.0431 329.252 21.5231 328.398 23.0164C327.572 24.5098 326.638 25.9764 325.598 27.4164C324.558 28.8298 323.518 30.1764 322.478 31.4564L320.518 33.1764V33.3364L323.078 32.8964H331.798V35.8564H315.878V34.6964C316.465 34.0831 317.172 33.3231 317.998 32.4164C318.825 31.5098 319.678 30.5098 320.558 29.4164C321.465 28.2964 322.345 27.1231 323.198 25.8964C324.078 24.6431 324.865 23.3764 325.558 22.0964C326.278 20.8164 326.852 19.5498 327.278 18.2964C327.705 17.0431 327.918 15.8564 327.918 14.7364C327.918 13.4298 327.545 12.3498 326.798 11.4964C326.052 10.6164 324.918 10.1764 323.398 10.1764C322.385 10.1764 321.398 10.3898 320.438 10.8164C319.478 11.2164 318.652 11.6831 317.958 12.2164L316.638 9.93645C317.572 9.13644 318.678 8.50978 319.958 8.05644C321.238 7.60311 322.612 7.37644 324.078 7.37644C325.225 7.37644 326.238 7.54978 327.118 7.89644C327.998 8.21644 328.745 8.68311 329.358 9.29644C329.972 9.90978 330.438 10.6431 330.758 11.4964C331.078 12.3231 331.238 13.2298 331.238 14.2164Z" fill="black"/>
</g>
<defs>
<filter id="filter0_d_33531_1325" x="0.5" y="0.856445" width="339" height="51.8" filterUnits="userSpaceOnUse" color-interpolation-filters="sRGB">
<feFlood flood-opacity="0" result="BackgroundImageFix"/>
<feColorMatrix in="SourceAlpha" type="matrix" values="0 0 0 0 0 0 0 0 0 0 0 0 0 0 0 0 0 0 127 0" result="hardAlpha"/>
<feOffset dy="4"/>
<feGaussianBlur stdDeviation="2"/>
<feComposite in2="hardAlpha" operator="out"/>
<feColorMatrix type="matrix" values="0 0 0 0 0 0 0 0 0 0 0 0 0 0 0 0 0 0 0.25 0"/>
<feBlend mode="normal" in2="BackgroundImageFix" result="effect1_dropShadow_33531_1325"/>
<feBlend mode="normal" in="SourceGraphic" in2="effect1_dropShadow_33531_1325" result="shape"/>
</filter>
</defs>
</svg>
