<svg width="332" height="45" viewBox="0 0 332 45" fill="none" xmlns="http://www.w3.org/2000/svg">
<path d="M2.40469 20.8964H9.44469V13.6564H12.3247V20.8964H19.3647V23.7764H12.3247V30.9764H9.44469V23.7764H2.40469V20.8964ZM25.4 35.8564L35.44 12.4164L37.2 10.4564L34.84 10.8164H23.44V7.85644H40.16V8.93644L28.64 35.8564H25.4ZM60.3925 44.6564C59.1658 43.3764 58.1258 41.9631 57.2725 40.4164C56.4192 38.8964 55.7258 37.3364 55.1925 35.7364C54.6858 34.1098 54.3125 32.4831 54.0725 30.8564C53.8325 29.2031 53.7125 27.6298 53.7125 26.1364C53.7125 24.6698 53.8325 23.1231 54.0725 21.4964C54.3125 19.8698 54.6992 18.2431 55.2325 16.6164C55.7658 14.9631 56.4592 13.3498 57.3125 11.7764C58.1925 10.2031 59.2592 8.73644 60.5125 7.37644L62.4325 8.77644C61.3658 10.1364 60.4725 11.5498 59.7525 13.0164C59.0592 14.4564 58.4992 15.9231 58.0725 17.4164C57.6458 18.9098 57.3392 20.4031 57.1525 21.8964C56.9925 23.3631 56.9125 24.7764 56.9125 26.1364C56.9125 27.4164 57.0058 28.8164 57.1925 30.3364C57.4058 31.8298 57.7258 33.3364 58.1525 34.8564C58.6058 36.3498 59.1792 37.8164 59.8725 39.2564C60.5925 40.6964 61.4458 42.0031 62.4325 43.1764L60.3925 44.6564ZM65.2434 29.1764C65.2434 27.4964 65.6834 26.0431 66.5634 24.8164C67.4434 23.5631 68.8168 22.4298 70.6834 21.4164C70.0168 21.0164 69.3901 20.6031 68.8034 20.1764C68.2434 19.7231 67.7368 19.2164 67.2834 18.6564C66.8568 18.0964 66.5101 17.4698 66.2434 16.7764C66.0034 16.0831 65.8834 15.2831 65.8834 14.3764C65.8834 13.3364 66.0568 12.3898 66.4034 11.5364C66.7768 10.6831 67.2968 9.94978 67.9634 9.33644C68.6568 8.72311 69.4701 8.24311 70.4034 7.89644C71.3634 7.54978 72.4434 7.37644 73.6434 7.37644C74.7634 7.37644 75.7768 7.53644 76.6834 7.85644C77.5901 8.17644 78.3501 8.61644 78.9634 9.17644C79.6034 9.73644 80.0968 10.4031 80.4434 11.1764C80.7901 11.9498 80.9634 12.8031 80.9634 13.7364C80.9634 15.2564 80.6168 16.6031 79.9234 17.7764C79.2301 18.9231 78.0834 20.0564 76.4834 21.1764C77.1768 21.5764 77.8301 22.0164 78.4434 22.4964C79.0834 22.9764 79.6301 23.5098 80.0834 24.0964C80.5634 24.6831 80.9368 25.3498 81.2034 26.0964C81.4701 26.8164 81.6034 27.6431 81.6034 28.5764C81.6034 29.7231 81.4168 30.7764 81.0434 31.7364C80.6701 32.6698 80.1234 33.4831 79.4034 34.1764C78.6834 34.8431 77.8034 35.3764 76.7634 35.7764C75.7234 36.1498 74.5368 36.3364 73.2034 36.3364C71.9234 36.3364 70.7901 36.1498 69.8034 35.7764C68.8168 35.4031 67.9768 34.8964 67.2834 34.2564C66.6168 33.6164 66.1101 32.8698 65.7634 32.0164C65.4168 31.1364 65.2434 30.1898 65.2434 29.1764ZM78.4834 28.7764C78.4834 27.9764 78.3234 27.2831 78.0034 26.6964C77.6834 26.0831 77.2568 25.5364 76.7234 25.0564C76.2168 24.5498 75.6301 24.0964 74.9634 23.6964C74.2968 23.2964 73.6034 22.9098 72.8834 22.5364C71.2568 23.4431 70.0968 24.4564 69.4034 25.5764C68.7101 26.6964 68.3634 27.7631 68.3634 28.7764C68.3634 29.4164 68.4701 30.0298 68.6834 30.6164C68.8968 31.2031 69.2168 31.7098 69.6434 32.1364C70.0701 32.5631 70.5901 32.9098 71.2034 33.1764C71.8434 33.4164 72.5768 33.5364 73.4034 33.5364C74.0701 33.5364 74.7101 33.4431 75.3234 33.2564C75.9368 33.0431 76.4701 32.7498 76.9234 32.3764C77.4034 31.9764 77.7768 31.4831 78.0434 30.8964C78.3368 30.2831 78.4834 29.5764 78.4834 28.7764ZM69.0034 14.2964C69.0034 15.0431 69.1501 15.7098 69.4434 16.2964C69.7368 16.8564 70.1234 17.3631 70.6034 17.8164C71.1101 18.2698 71.6834 18.6964 72.3234 19.0964C72.9634 19.4698 73.6301 19.8298 74.3234 20.1764C75.5234 19.2431 76.4034 18.3231 76.9634 17.4164C77.5501 16.5098 77.8434 15.5098 77.8434 14.4164C77.8434 13.0564 77.4168 12.0164 76.5634 11.2964C75.7368 10.5498 74.7368 10.1764 73.5634 10.1764C72.8434 10.1764 72.2034 10.2964 71.6434 10.5364C71.0834 10.7764 70.6034 11.0831 70.2034 11.4564C69.8034 11.8298 69.4968 12.2698 69.2834 12.7764C69.0968 13.2564 69.0034 13.7631 69.0034 14.2964ZM88.6403 32.8964H94.2403V13.5364L94.6403 11.1764L93.0403 13.0564L88.6403 16.2164L87.1203 14.1764L95.9203 7.37644H97.3603V32.8964H102.84V35.8564H88.6403V32.8964ZM123.957 14.2164C123.957 15.6298 123.691 17.0831 123.157 18.5764C122.651 20.0431 121.971 21.5231 121.117 23.0164C120.291 24.5098 119.357 25.9764 118.317 27.4164C117.277 28.8298 116.237 30.1764 115.197 31.4564L113.237 33.1764V33.3364L115.797 32.8964H124.517V35.8564H108.597V34.6964C109.184 34.0831 109.891 33.3231 110.717 32.4164C111.544 31.5098 112.397 30.5098 113.277 29.4164C114.184 28.2964 115.064 27.1231 115.917 25.8964C116.797 24.6431 117.584 23.3764 118.277 22.0964C118.997 20.8164 119.571 19.5498 119.997 18.2964C120.424 17.0431 120.637 15.8564 120.637 14.7364C120.637 13.4298 120.264 12.3498 119.517 11.4964C118.771 10.6164 117.637 10.1764 116.117 10.1764C115.104 10.1764 114.117 10.3898 113.157 10.8164C112.197 11.2164 111.371 11.6831 110.677 12.2164L109.357 9.93645C110.291 9.13644 111.397 8.50978 112.677 8.05644C113.957 7.60311 115.331 7.37644 116.797 7.37644C117.944 7.37644 118.957 7.54978 119.837 7.89644C120.717 8.21644 121.464 8.68311 122.077 9.29644C122.691 9.90978 123.157 10.6431 123.477 11.4964C123.797 12.3231 123.957 13.2298 123.957 14.2164ZM130.034 7.37644C131.261 8.65644 132.301 10.0698 133.154 11.6164C134.007 13.1364 134.687 14.7098 135.194 16.3364C135.727 17.9364 136.114 19.5631 136.354 21.2164C136.594 22.8431 136.714 24.4031 136.714 25.8964C136.714 27.3631 136.594 28.9098 136.354 30.5364C136.114 32.1631 135.727 33.8031 135.194 35.4564C134.661 37.0831 133.954 38.6831 133.074 40.2564C132.221 41.8298 131.167 43.2964 129.914 44.6564L127.994 43.2564C129.061 41.8964 129.954 40.4831 130.674 39.0164C131.394 37.5498 131.954 36.0698 132.354 34.5764C132.781 33.0831 133.074 31.6031 133.234 30.1364C133.421 28.6698 133.514 27.2564 133.514 25.8964C133.514 24.6164 133.407 23.2298 133.194 21.7364C132.981 20.2431 132.647 18.7364 132.194 17.2164C131.767 15.6964 131.207 14.2164 130.514 12.7764C129.821 11.3364 128.981 10.0298 127.994 8.85644L130.034 7.37644ZM152.509 29.1764C152.509 27.4964 152.949 26.0431 153.829 24.8164C154.709 23.5631 156.082 22.4298 157.949 21.4164C157.282 21.0164 156.656 20.6031 156.069 20.1764C155.509 19.7231 155.002 19.2164 154.549 18.6564C154.122 18.0964 153.776 17.4698 153.509 16.7764C153.269 16.0831 153.149 15.2831 153.149 14.3764C153.149 13.3364 153.322 12.3898 153.669 11.5364C154.042 10.6831 154.562 9.94978 155.229 9.33644C155.922 8.72311 156.736 8.24311 157.669 7.89644C158.629 7.54978 159.709 7.37644 160.909 7.37644C162.029 7.37644 163.042 7.53644 163.949 7.85644C164.856 8.17644 165.616 8.61644 166.229 9.17644C166.869 9.73644 167.362 10.4031 167.709 11.1764C168.056 11.9498 168.229 12.8031 168.229 13.7364C168.229 15.2564 167.882 16.6031 167.189 17.7764C166.496 18.9231 165.349 20.0564 163.749 21.1764C164.442 21.5764 165.096 22.0164 165.709 22.4964C166.349 22.9764 166.896 23.5098 167.349 24.0964C167.829 24.6831 168.202 25.3498 168.469 26.0964C168.736 26.8164 168.869 27.6431 168.869 28.5764C168.869 29.7231 168.682 30.7764 168.309 31.7364C167.936 32.6698 167.389 33.4831 166.669 34.1764C165.949 34.8431 165.069 35.3764 164.029 35.7764C162.989 36.1498 161.802 36.3364 160.469 36.3364C159.189 36.3364 158.056 36.1498 157.069 35.7764C156.082 35.4031 155.242 34.8964 154.549 34.2564C153.882 33.6164 153.376 32.8698 153.029 32.0164C152.682 31.1364 152.509 30.1898 152.509 29.1764ZM165.749 28.7764C165.749 27.9764 165.589 27.2831 165.269 26.6964C164.949 26.0831 164.522 25.5364 163.989 25.0564C163.482 24.5498 162.896 24.0964 162.229 23.6964C161.562 23.2964 160.869 22.9098 160.149 22.5364C158.522 23.4431 157.362 24.4564 156.669 25.5764C155.976 26.6964 155.629 27.7631 155.629 28.7764C155.629 29.4164 155.736 30.0298 155.949 30.6164C156.162 31.2031 156.482 31.7098 156.909 32.1364C157.336 32.5631 157.856 32.9098 158.469 33.1764C159.109 33.4164 159.842 33.5364 160.669 33.5364C161.336 33.5364 161.976 33.4431 162.589 33.2564C163.202 33.0431 163.736 32.7498 164.189 32.3764C164.669 31.9764 165.042 31.4831 165.309 30.8964C165.602 30.2831 165.749 29.5764 165.749 28.7764ZM156.269 14.2964C156.269 15.0431 156.416 15.7098 156.709 16.2964C157.002 16.8564 157.389 17.3631 157.869 17.8164C158.376 18.2698 158.949 18.6964 159.589 19.0964C160.229 19.4698 160.896 19.8298 161.589 20.1764C162.789 19.2431 163.669 18.3231 164.229 17.4164C164.816 16.5098 165.109 15.5098 165.109 14.4164C165.109 13.0564 164.682 12.0164 163.829 11.2964C163.002 10.5498 162.002 10.1764 160.829 10.1764C160.109 10.1764 159.469 10.2964 158.909 10.5364C158.349 10.7764 157.869 11.0831 157.469 11.4564C157.069 11.8298 156.762 12.2698 156.549 12.7764C156.362 13.2564 156.269 13.7631 156.269 14.2964ZM175.906 32.8964H181.506V13.5364L181.906 11.1764L180.306 13.0564L175.906 16.2164L174.386 14.1764L183.186 7.37644H184.626V32.8964H190.106V35.8564H175.906V32.8964ZM211.223 14.2164C211.223 15.6298 210.956 17.0831 210.423 18.5764C209.916 20.0431 209.236 21.5231 208.383 23.0164C207.556 24.5098 206.623 25.9764 205.583 27.4164C204.543 28.8298 203.503 30.1764 202.463 31.4564L200.503 33.1764V33.3364L203.063 32.8964H211.783V35.8564H195.863V34.6964C196.449 34.0831 197.156 33.3231 197.983 32.4164C198.809 31.5098 199.663 30.5098 200.543 29.4164C201.449 28.2964 202.329 27.1231 203.183 25.8964C204.063 24.6431 204.849 23.3764 205.543 22.0964C206.263 20.8164 206.836 19.5498 207.263 18.2964C207.689 17.0431 207.903 15.8564 207.903 14.7364C207.903 13.4298 207.529 12.3498 206.783 11.4964C206.036 10.6164 204.903 10.1764 203.383 10.1764C202.369 10.1764 201.383 10.3898 200.423 10.8164C199.463 11.2164 198.636 11.6831 197.943 12.2164L196.623 9.93645C197.556 9.13644 198.663 8.50978 199.943 8.05644C201.223 7.60311 202.596 7.37644 204.063 7.37644C205.209 7.37644 206.223 7.54978 207.103 7.89644C207.983 8.21644 208.729 8.68311 209.343 9.29644C209.956 9.90978 210.423 10.6431 210.743 11.4964C211.063 12.3231 211.223 13.2298 211.223 14.2164ZM217.54 22.8564H227.22V25.8164H217.54V22.8564ZM233.914 32.8964H239.514V13.5364L239.914 11.1764L238.314 13.0564L233.914 16.2164L232.394 14.1764L241.194 7.37644H242.634V32.8964H248.114V35.8564H233.914V32.8964ZM269.231 14.2164C269.231 15.6298 268.964 17.0831 268.431 18.5764C267.924 20.0431 267.244 21.5231 266.391 23.0164C265.564 24.5098 264.631 25.9764 263.591 27.4164C262.551 28.8298 261.511 30.1764 260.471 31.4564L258.511 33.1764V33.3364L261.071 32.8964H269.791V35.8564H253.871V34.6964C254.457 34.0831 255.164 33.3231 255.991 32.4164C256.817 31.5098 257.671 30.5098 258.551 29.4164C259.457 28.2964 260.337 27.1231 261.191 25.8964C262.071 24.6431 262.857 23.3764 263.551 22.0964C264.271 20.8164 264.844 19.5498 265.271 18.2964C265.697 17.0431 265.911 15.8564 265.911 14.7364C265.911 13.4298 265.537 12.3498 264.791 11.4964C264.044 10.6164 262.911 10.1764 261.391 10.1764C260.377 10.1764 259.391 10.3898 258.431 10.8164C257.471 11.2164 256.644 11.6831 255.951 12.2164L254.631 9.93645C255.564 9.13644 256.671 8.50978 257.951 8.05644C259.231 7.60311 260.604 7.37644 262.071 7.37644C263.217 7.37644 264.231 7.54978 265.111 7.89644C265.991 8.21644 266.737 8.68311 267.351 9.29644C267.964 9.90978 268.431 10.6431 268.751 11.4964C269.071 12.3231 269.231 13.2298 269.231 14.2164ZM275.548 22.8564H285.228V25.8164H275.548V22.8564ZM291.922 32.8964H297.522V13.5364L297.922 11.1764L296.322 13.0564L291.922 16.2164L290.402 14.1764L299.202 7.37644H300.642V32.8964H306.122V35.8564H291.922V32.8964ZM327.238 14.2164C327.238 15.6298 326.972 17.0831 326.438 18.5764C325.932 20.0431 325.252 21.5231 324.398 23.0164C323.572 24.5098 322.638 25.9764 321.598 27.4164C320.558 28.8298 319.518 30.1764 318.478 31.4564L316.518 33.1764V33.3364L319.078 32.8964H327.798V35.8564H311.878V34.6964C312.465 34.0831 313.172 33.3231 313.998 32.4164C314.825 31.5098 315.678 30.5098 316.558 29.4164C317.465 28.2964 318.345 27.1231 319.198 25.8964C320.078 24.6431 320.865 23.3764 321.558 22.0964C322.278 20.8164 322.852 19.5498 323.278 18.2964C323.705 17.0431 323.918 15.8564 323.918 14.7364C323.918 13.4298 323.545 12.3498 322.798 11.4964C322.052 10.6164 320.918 10.1764 319.398 10.1764C318.385 10.1764 317.398 10.3898 316.438 10.8164C315.478 11.2164 314.652 11.6831 313.958 12.2164L312.638 9.93645C313.572 9.13644 314.678 8.50978 315.958 8.05644C317.238 7.60311 318.612 7.37644 320.078 7.37644C321.225 7.37644 322.238 7.54978 323.118 7.89644C323.998 8.21644 324.745 8.68311 325.358 9.29644C325.972 9.90978 326.438 10.6431 326.758 11.4964C327.078 12.3231 327.238 13.2298 327.238 14.2164Z" fill="black"/>
</svg>
